<svg xmlns="http://www.w3.org/2000/svg" viewBox="0 0 619.6 199.06"><defs><style>.cls-1{fill:#fff;}</style></defs><g id="レイヤー_2" data-name="レイヤー 2"><g id="レイヤー_1-2" data-name="レイヤー 1"><path class="cls-1" d="M146.62,1A52.48,52.48,0,0,0,99.53,30.3,52.45,52.45,0,0,0,0,53.42V193.69a5.37,5.37,0,0,0,10.74,0V53.42a41.71,41.71,0,1,1,83.42,0v.18l0,.26,0,139.83a5.37,5.37,0,0,0,10.74,0l0-140.19v-.21a41.72,41.72,0,0,1,83.43.11v0h0V193.69a5.37,5.37,0,0,0,10.74,0V53.4h0A52.44,52.44,0,0,0,146.62,1Z"/><path class="cls-1" d="M316.93,1a5.36,5.36,0,0,0-5.37,5.37V146.61a41.72,41.72,0,1,1-83.43,0V6.34a5.37,5.37,0,0,0-10.74,0V146.61a52.46,52.46,0,0,0,104.91,0V6.34A5.37,5.37,0,0,0,316.93,1Z"/><path class="cls-1" d="M614.23,0H392.88a52.45,52.45,0,1,0,0,104.9,41.71,41.71,0,1,1,0,83.42H334.63a5.37,5.37,0,0,0,0,10.74h58.25a52.45,52.45,0,0,0,0-104.9,41.71,41.71,0,0,1,0-83.42H552v183a5.37,5.37,0,0,0,10.74,0V10.74h51.5a5.37,5.37,0,1,0,0-10.74Z"/><path class="cls-1" d="M478,80.8a5.37,5.37,0,0,0-5.37,5.37V193.69a5.37,5.37,0,1,0,10.74,0V86.17A5.36,5.36,0,0,0,478,80.8Z"/></g></g></svg>